<?xml version="1.0" encoding="UTF-8" standalone="no"?>
<svg
   xmlns:dc="http://purl.org/dc/elements/1.1/"
   xmlns:cc="http://creativecommons.org/ns#"
   xmlns:rdf="http://www.w3.org/1999/02/22-rdf-syntax-ns#"
   xmlns:svg="http://www.w3.org/2000/svg"
   xmlns="http://www.w3.org/2000/svg"
   viewBox="0 0 1365.3333 572"
   height="572"
   width="1365.3333"
   xml:space="preserve"
   id="svg2"
   version="1.1"><metadata
     id="metadata8"><rdf:RDF><cc:Work
         rdf:about=""><dc:format>image/svg+xml</dc:format><dc:type
           rdf:resource="http://purl.org/dc/dcmitype/StillImage" /></cc:Work></rdf:RDF></metadata><defs
     id="defs6"><clipPath
       id="clipPath18"
       clipPathUnits="userSpaceOnUse"><path
         id="path16"
         d="M 0,429 H 1024 V 0 H 0 Z" /></clipPath><clipPath
       id="clipPath66"
       clipPathUnits="userSpaceOnUse"><path
         id="path64"
         d="M 0,429 H 1024 V 0 H 0 Z" /></clipPath></defs><g
     transform="matrix(1.3333333,0,0,-1.3333333,0,572)"
     id="g10"><g
       id="g12"><g
         clip-path="url(#clipPath18)"
         id="g14"><g
           transform="translate(90.0102,379.3392)"
           id="g20"><path
             id="path22"
             style="fill:#ffffff;fill-opacity:1;fill-rule:nonzero;stroke:none"
             d="m 0,0 c 59.865,44.27 144.559,51.42 210.963,17.679 12.433,-6.863 26.375,-12.828 34.927,-24.686 -6.396,-12.505 -13.151,-25.081 -22.817,-35.394 -28.495,19.943 -61.841,34.244 -97.055,34.891 -64.608,2.264 -128.39,-38.592 -152.896,-98.493 -12.038,-27.345 -14.445,-58.176 -10.097,-87.533 8.049,-47.468 39.706,-90.156 82.826,-111.536 41.862,-21.74 93.785,-22.926 136.653,-3.234 14.158,6.18 26.483,15.774 40.461,22.314 8.265,-11.642 17.428,-23.177 22.135,-36.831 -1.725,-4.456 -6.037,-6.971 -9.63,-9.738 -38.053,-26.124 -85.018,-39.131 -131.084,-35.287 -58.607,3.917 -115.274,34.568 -149.302,82.647 -32.304,44.09 -46.031,101.547 -36.077,155.375 C -72.441,-78.119 -42.796,-30.328 0,0" /></g><g
           transform="translate(201.9419,250.0877)"
           id="g24"><path
             id="path26"
             style="fill:#ffffff;fill-opacity:1;fill-rule:nonzero;stroke:none"
             d="M 0,0 C 25.477,8.66 53.972,-17.392 46.893,-43.515 43.048,-64.752 17.571,-78.37 -2.264,-70.106 -20.518,-63.638 -31.837,-41.575 -24.435,-23.213 -20.41,-12.253 -11.139,-3.521 0,0" /></g><g
           transform="translate(385.2392,307.2144)"
           id="g28"><path
             id="path30"
             style="fill:#ffffff;fill-opacity:1;fill-rule:nonzero;stroke:none"
             d="m 0,0 c 19.257,16.674 49.083,16.361 69.084,1.096 -1.488,-2.349 -4.423,-7.085 -5.91,-9.433 -8.572,4.775 -17.536,10.059 -27.712,9.668 -23.172,0 -45.326,-20.588 -44.19,-44.229 -0.979,-18.475 12.916,-35.58 30.177,-40.981 14.443,-4.697 29.513,0.196 41.999,7.711 1.33,-2.584 3.992,-7.75 5.323,-10.334 -20.902,-14.169 -51.001,-14.521 -70.258,2.74 C -26.381,-63.017 -25.95,-19.766 0,0" /></g><g
           transform="translate(515.6961,295.7853)"
           id="g32"><path
             id="path34"
             style="fill:#ffffff;fill-opacity:1;fill-rule:nonzero;stroke:none"
             d="m 0,0 c -9.824,-24.228 -20.392,-48.183 -30.608,-72.254 20.744,-0.705 41.567,-0.157 62.351,-0.313 C 21.645,-48.183 12.447,-23.289 0,0 M -47.674,-83.605 C -31.039,-47.4 -17.457,-9.59 1.605,25.402 17.379,-11.038 33.387,-47.4 49.278,-83.84 c -32.33,-0.117 -64.66,-0.587 -96.952,0.235" /></g><g
           transform="translate(603.137,306.3925)"
           id="g36"><path
             id="path38"
             style="fill:#ffffff;fill-opacity:1;fill-rule:nonzero;stroke:none"
             d="m 0,0 c 9.55,-14.795 18.005,-30.256 27.477,-45.09 8.337,3.796 15.5,9.472 19.649,17.809 -1.096,6.145 0.469,13.66 -4.306,18.553 C 33.231,5.558 14.208,-1.487 0,0 m -21.254,12.995 c 18.123,-0.783 36.48,1.448 54.406,-1.879 20.393,-4.501 31.587,-30.021 21.45,-48.222 -4.462,-8.689 -13.191,-13.621 -21.645,-17.731 7.984,-13.151 15.656,-26.459 23.915,-39.414 -4.58,-0.118 -9.12,-0.274 -13.66,-0.47 -8.024,12.877 -16.048,25.794 -23.446,39.102 -9.276,0.156 -18.553,0.195 -27.79,0.235 0.078,-13.113 0.039,-26.264 0.118,-39.376 -2.819,0.117 -8.416,0.391 -11.234,0.509 0.47,16.83 0.274,33.661 0.235,50.491 10.294,0.118 20.588,0.118 30.921,0.196 -10.842,19.023 -22.741,37.38 -33.27,56.559" /></g><g
           transform="translate(696.8405,223.6485)"
           id="g40"><path
             id="path42"
             style="fill:#ffffff;fill-opacity:1;fill-rule:nonzero;stroke:none"
             d="M 0,0 C 20.901,-0.783 41.842,-0.431 62.743,-0.352 52.84,24.385 41.763,48.691 32.252,73.624 20.901,49.357 11.273,24.307 0,0 m 28.808,93.39 c 1.252,0.431 3.757,1.292 5.049,1.723 14.56,-36.049 31.391,-71.08 46.382,-106.934 -32.291,0.04 -64.583,-0.313 -96.874,0.157 C -2.309,23.68 14.13,58.163 28.808,93.39" /></g><g
           transform="translate(795.3583,318.8784)"
           id="g44"><path
             id="path46"
             style="fill:#ffffff;fill-opacity:1;fill-rule:nonzero;stroke:none"
             d="m 0,0 c 2.622,-0.117 7.828,-0.391 10.411,-0.509 1.096,-15.265 0.157,-30.608 0.548,-45.912 17.536,13.777 29.552,33.504 47.439,46.852 3.132,-0.079 9.394,-0.274 12.525,-0.392 -8.571,-10.45 -18.161,-20.001 -27.516,-29.708 14.169,-26.224 30.726,-51.079 45.521,-76.99 -3.17,-0.118 -9.511,-0.392 -12.681,-0.509 -13.191,22.976 -27.321,45.364 -40.903,68.105 -8.454,-8.65 -17.965,-16.674 -24.306,-27.124 -0.431,-13.661 0.156,-27.399 -0.196,-41.098 -2.74,0.078 -8.141,0.234 -10.842,0.274 C 0.039,-71.315 -0.117,-35.657 0,0" /></g><g
           transform="translate(911.1765,223.1788)"
           id="g48"><path
             id="path50"
             style="fill:#ffffff;fill-opacity:1;fill-rule:nonzero;stroke:none"
             d="M 0,0 C 20.549,0.117 41.137,0.078 61.686,0.157 51.314,24.502 41.646,49.161 30.726,73.233 20.079,49.044 9.002,24.894 0,0 M 29.786,97.657 C 37.458,87.989 40.785,75.855 45.795,64.778 56.833,39.415 68.458,14.286 79.26,-11.194 46.852,-11.625 14.443,-11.429 -17.966,-11.273 -2.114,25.089 13.621,61.451 29.786,97.657" /></g><g
           transform="translate(418.2742,273.6706)"
           id="g52"><path
             id="path54"
             style="fill:#ffffff;fill-opacity:1;fill-rule:nonzero;stroke:none"
             d="M 0,0 C 11.233,3.679 17.3,-13.856 5.989,-17.77 -5.127,-23.719 -12.995,-2.27 0,0" /></g></g></g><text
       id="text58"
       style="font-variant:normal;font-weight:900;font-stretch:normal;font-size:108.93499756px;font-family:'Roxborough CF Heavy';-inkscape-font-specification:RoxboroughCF-Heavy;writing-mode:lr-tb;fill:#ffffff;fill-opacity:1;fill-rule:nonzero;stroke:none"
       transform="matrix(1,0,0,-1,446.1973,82.9609)"><tspan
         id="tspan56"
         y="0"
         x="0 83.008469 175.71216 245.21269 314.71323 386.93713">COFFEE</tspan></text>
<g
       id="g60"><g
         clip-path="url(#clipPath66)"
         id="g62"><path
           id="path68"
           style="fill:#ffffff;fill-opacity:1;fill-rule:nonzero;stroke:none"
           d="M 1010.324,192.113 H 345.535 v 3.521 h 664.789 z" /></g></g></g></svg>